<svg height="682pt" viewBox="-100 -21 682 682.66669" width="682pt" xmlns="http://www.w3.org/2000/svg"><path d="m449.511719 436.503906c-17.851563-22.210937-42.167969-37.359375-69.539063-43.589844l53.425782-95.65625c15.636718-28-5.367188-63.605468-37.328126-63.605468h-57.609374c16.726562-24.074219 26.542968-53.285156 26.542968-84.75 0-82.105469-66.789062-148.902344-148.894531-148.902344s-148.902344 66.796875-148.902344 148.902344c0 31.464844 9.820313 60.675781 26.546875 84.746094h-56.054687c-31.972657 0-52.960938 35.613281-37.328125 63.609374l23.574218 42.203126c8 14.328124 29.933594 1.792968 22.054688-12.3125l-23.574219-42.210938c-3.105469-5.558594-3.035156-11.894531.1875-17.390625 3.222657-5.484375 8.71875-8.636719 15.085938-8.636719h78.171875c26.472656 24.144532 61.664062 38.886719 100.234375 38.886719 38.574219 0 73.761719-14.742187 100.238281-38.886719h79.726562c13.160157 0 21.6875 14.535156 15.273438 26.027344l-58.539062 104.8125c-63.351563-.460938-118.199219 47.257812-125.207032 111.5625-3.160156 29.007812 3.910156 56.820312 18.316406 79.820312l-13.75 24.625c-3.136718 5.613282-8.847656 8.964844-15.277343 8.964844-6.433594 0-12.144531-3.351562-15.28125-8.964844l-106.582031-190.832031c-7.902344-14.160156-29.96875-1.859375-22.050782 12.320313l106.582032 190.832031c16.023437 28.679687 58.632812 28.6875 74.660156 0l8.640625-15.476563c23.417969 23.828126 55.953125 37.398438 89.363281 37.398438 28.367188 0 55.6875-9.574219 78.125-27.597656 26.046875-20.933594 42.390625-50.757813 46.007812-83.980469 3.625-33.222656-5.910156-65.863281-26.839843-91.917969-17.851563-22.210937 20.929687 26.054688 0 0zm-233.402344-163.964844c-68.179687 0-123.636719-55.464843-123.636719-123.636718 0-68.179688 55.457032-123.644532 123.636719-123.644532 68.171875 0 123.636719 55.464844 123.636719 123.644532 0 68.171875-55.464844 123.636718-123.636719 123.636718zm235.132813 253.148438c-2.886719 26.515625-15.929688 50.320312-36.726563 67.023438-20.785156 16.703124-46.839844 24.3125-73.359375 21.425781-54.734375-5.96875-94.414062-55.351563-88.445312-110.082031 5.566406-51.085938 48.941406-89.046876 99.195312-89.046876 3.59375 0 7.234375.195313 10.890625.59375 26.515625 2.890626 50.320313 15.929688 67.023437 36.722657 16.703126 20.796875 24.3125 46.847656 21.421876 73.363281zm0 0"/><path d="m352.378906 452.535156c-6.976562 0-12.632812 5.652344-12.632812 12.628906v54.738282c0 16.222656 25.257812 16.246094 25.257812 0v-54.738282c0-6.976562-5.652344-12.628906-12.625-12.628906zm0 0"/><path d="m352.378906 557.792969c-6.753906 0-12.53125 5.652343-12.617187 12.417969-.09375 7.011718 5.652343 12.792968 12.640625 12.800781 6.976562.011719 12.730468-5.910157 12.589844-12.886719-.144532-6.703125-5.910157-12.332031-12.613282-12.332031zm0 0"/><path d="m70.09375 366.558594c-3.726562-3.726563-9.535156-4.730469-14.300781-2.492188-4.757813 2.230469-7.707031 7.375-7.199219 12.613282.507812 5.25 4.328125 9.710937 9.429688 11.035156 5.085937 1.316406 10.640624-.78125 13.582031-5.136719 3.355469-4.957031 2.730469-11.78125-1.511719-16.019531-2.347656-2.347656 2.351562 2.347656 0 0zm0 0"/></svg>